<?xml version="1.0" encoding="utf-8"?>
<svg viewBox="0 0 500 500" xmlns="http://www.w3.org/2000/svg">
  <path style="fill: rgb(216, 216, 216); stroke: rgb(0, 0, 0);" d="M 70.431 59.953 C 87.589 81.401 105.827 92.494 130.384 104.773 C 140.257 109.71 150.141 113.458 160.07 118.161 C 160.314 118.276 165.894 121.845 163.562 123.399 C 154.556 129.403 134.587 129.516 124.563 130.966 C 99.341 134.617 74.505 137.915 49.476 142.608 C 40.768 144.24 31.417 144.515 22.701 146.1 C 19.921 146.605 17.232 147.535 14.552 148.428 C 13.317 148.84 10.139 149.254 11.059 150.175 C 14.572 153.687 22.835 153.831 26.193 154.831 C 46.419 160.856 66.25 168.101 86.729 173.458 C 110.086 179.566 94.718 173.682 112.34 181.024 C 112.626 181.144 118.305 183.203 118.743 184.517 C 119.566 186.986 114.275 187.347 111.758 188.009 C 109.678 188.557 92.584 192.35 96.624 197.905 C 99.561 201.943 105.036 204.007 109.43 205.471 C 122.987 209.991 137.2 212.594 150.757 217.113 C 152.071 217.551 166.976 222.114 167.637 224.098 C 169.731 230.381 151.653 233.233 155.413 239.814 C 160.171 248.14 178.716 253.185 186.845 256.112 C 188.267 256.624 203.143 259.207 203.143 263.097 C 203.143 266.052 197.843 265.803 194.994 266.589 C 185.519 269.203 176.098 269.572 166.473 271.246 C 164.293 271.625 159.248 270.938 160.07 272.992 C 161.592 276.797 163.261 275.025 167.055 276.484 C 178.017 280.701 187.729 284.394 199.069 287.544 C 202.439 288.48 205.689 289.808 208.964 291.036 C 210.781 291.717 215.538 294.234 213.62 294.529 C 202.007 296.315 190.905 296.279 179.278 299.185 C 176.831 299.797 171.682 299.648 172.293 302.095 C 174.583 311.254 192.541 314.617 199.069 317.811 C 267.186 351.146 154.223 298.949 231.083 332.945 C 235.447 334.876 239.62 337.214 243.888 339.348 C 248.561 341.684 257.276 342.273 257.276 347.497 C 257.276 352.022 249.794 352.699 245.634 354.482 C 239.309 357.193 232.912 359.748 226.426 362.049 C 224.493 362.735 214.757 364.405 212.456 366.705 C 211.536 367.626 213.235 369.327 214.203 370.198 C 217.471 373.139 229.512 376.557 220.023 378.929"/>
</svg>